<!DOCTYPE svg PUBLIC "-//W3C//DTD SVG 1.1//EN" "http://www.w3.org/Graphics/SVG/1.1/DTD/svg11.dtd">
<!-- Uploaded to: SVG Repo, www.svgrepo.com, Transformed by: SVG Repo Mixer Tools -->
<svg version="1.0" id="Layer_1" xmlns="http://www.w3.org/2000/svg" xmlns:xlink="http://www.w3.org/1999/xlink" width="800px" height="800px" viewBox="0 0 64 64" enable-background="new 0 0 64 64" xml:space="preserve" fill="#000000" transform="rotate(180)matrix(1, 0, 0, 1, 0, 0)">
<g id="SVGRepo_bgCarrier" stroke-width="0"/>
<g id="SVGRepo_tracerCarrier" stroke-linecap="round" stroke-linejoin="round"/>
<g id="SVGRepo_iconCarrier"> <path fill="#000000" d="M36,0C20.535,0,8,12.535,8,28v22.344l-6.828,6.828c-1.562,1.562-1.562,4.094,0,5.656 C1.953,63.609,2.977,64,4,64s2.047-0.391,2.828-1.172L13.656,56H36c15.465,0,28-12.535,28-28V0H36z M50.828,18.828L37.652,32.004H44 c2.211,0,4,1.789,4,4s-1.789,4-4,4H29.652l-2.824,2.824C26.047,43.609,25.023,44,24,44s-2.047-0.391-2.828-1.172 c-1.562-1.562-1.562-4.094,0-5.656L24,34.344V20c0-2.211,1.789-4,4-4s4,1.789,4,4v6.344l13.172-13.172 c1.562-1.562,4.094-1.562,5.656,0S52.391,17.266,50.828,18.828z"/> </g>
</svg>